PathFileType	4	(X/Y/Z)	C:/Users/beibeiliu/ov580/test_trc/User2\sequence.5_training_dense_right.trc
DataRate	CameraRate	NumFrames	NumMarkers	Units	OrigDataRate	OrigDataStartFrame	OrigNumFrames
120	120	18	19	mm	120	1	72
Frame#	Time	ThumbCMC			ThumbMCP			ThumbIP			ThumbTip			IndexMCP			IndexPIP			IndexTip			MiddleMCP			MiddlePIP			MiddleTip			RingMCP			RingPIP			RingTip			PinkyMCP			PinkyPIP			PinkyTip			BackHand1			BackHand2			BackHand3	
		X0	Y0	Z0	X1	Y1	Z1	X2	Y2	Z2	X3	Y3	Z3	X4	Y4	Z4	X5	Y5	Z5	X6	Y6	Z6	X7	Y7	Z7	X8	Y8	Z8	X9	Y9	Z9	X10	Y10	Z10	X11	Y11	Z11	X12	Y12	Z12	X13	Y13	Z13	X14	Y14	Z14	X15	Y15	Z15	X16	Y16	Z16	X17	Y17	Z17	X18	Y18	Z18	
0	0	92.4785	-14.1512	-15.2669	69.0439	-32.7637	-40.9754	60.0476	-46.6455	-73.1827	62.2223	-56.4319	-97.4439	97.4557	22.7123	-90.2114	89.512	25.6992	-120.787	81.7075	28.03	-143.723	124.798	10.523	-105.642	113.728	-12.785	-133.17	107.206	-51.7553	-124.426	139.806	-9.48442	-105.743	129.232	-37.4705	-119.337	119.456	-63.5175	-94.7235	156.441	-23.0377	-94.7674	142.008	-52.4583	-103.747	129.921	-67.8946	-79.5537	153.484	8.76993	-45.4281	157.537	8.65323	-9.72762	121.672	16.1271	-21.5148	
1	0.00833333	91.9903	-12.8802	-22.1147	77.2911	-31.6557	-45.2311	72.2439	-43.8787	-82.2926	75.5504	-54.5026	-105.501	100.803	26.209	-89.814	93.0344	34.3422	-118.606	91.9243	38.087	-146.359	121.289	9.66606	-104.79	110.466	-22.0536	-128.487	105.555	-54.8858	-107.916	136.597	-12.101	-106.752	132.712	-41.0768	-113.66	118.948	-57.8831	-80.9222	155.525	-24.2028	-93.3396	138.733	-54.4544	-95.4092	128.106	-55.2208	-64.5926	154.466	9.29342	-45.8748	158.616	7.73608	-10.5382	122.291	19.0566	-24.4966	
2	0.0166667	94.5638	-7.79092	-19.2417	82.9607	-24.4278	-51.9727	78.9169	-36.0286	-87.5325	91.0099	-42.7258	-109.934	109.221	36.7477	-88.6447	102.795	47.2133	-112.359	105.195	55.2986	-139.462	124.759	12.3835	-109.588	112.743	-18.5464	-124.888	107.294	-48.5285	-97.7839	142.596	-9.66875	-105.21	129.983	-36.1355	-108.771	121.505	-48.5887	-74.2752	156.413	-21.2976	-94.8176	139.789	-48.7724	-90.3793	130.926	-47.0992	-61.0173	160.168	13.6961	-47.2138	165.746	10.896	-13.3161	129.715	23.8747	-23.0752	
3	0.025	98.3603	-0.111336	-24.0275	84.0145	-17.5026	-52.7314	84.4585	-27.5485	-91.1521	97.1753	-35.798	-114.274	116.662	45.376	-85.9334	114.745	59.5586	-114.814	119.915	68.3508	-138.496	135.703	16.8193	-108.753	120.433	-15.9992	-123.681	112.706	-41.1429	-95.9648	145.335	-5.79232	-106.854	131.212	-35.4011	-105	122.384	-40.3691	-71.1362	160.42	-17.8053	-94.043	141.245	-42.6922	-89.5772	133.72	-38.9217	-54.7775	164.443	19.607	-47.0988	169.473	10.8783	-11.2569	132.412	29.811	-26.6067	
4	0.0333333	101.936	7.1784	-25.9026	87.7078	-10.61	-53.3795	84.3731	-22.3859	-89.5544	99.0017	-32.2451	-113.144	127.805	49.6675	-90.8333	125.156	61.4322	-113.927	130.833	67.6413	-141.404	137.804	20.8151	-106.414	120.398	-13.0984	-122.88	109.567	-36.8593	-97.6194	149.92	-3.83701	-103.043	128.872	-32.2645	-103.798	121	-38.1934	-68.8641	164.647	-19.6253	-92.6168	137.299	-42.911	-85.8367	134.506	-35.7352	-54.0243	170.959	16.9631	-45.7501	178.214	10.7361	-12.6123	144.762	29.3204	-25.0492	
5	0.0416667	104.335	10.4966	-26.5317	88.6924	-6.56162	-51.5091	81.4245	-20.2838	-82.0898	91.3134	-32.2377	-106.962	128.512	44.8704	-94.4551	131.661	49.1761	-123.921	127.255	54.945	-152.846	140.418	14.6148	-107.873	120.643	-14.9204	-124.051	104.186	-36.846	-97.517	145.399	-10.495	-105.512	127.473	-36.6337	-104.956	114.773	-38.4982	-72.0071	159.207	-28.9474	-94.2747	132.94	-44.5122	-86.6766	129.495	-38.1683	-50.1986	175.652	8.95374	-50.7726	177.172	7.2853	-16.8014	148.376	28.9406	-30.7881	
6	0.05	106.373	11.4799	-24.5584	83.4104	-3.02472	-48.8368	74.5721	-17.858	-83.2053	82.3444	-32.8485	-106.16	125.606	35.9473	-99.8109	118.584	34.9773	-129.862	117.142	24.3322	-156.082	135.679	12.716	-109.235	114.42	-16.0505	-122.691	98.8994	-37.9362	-93.6221	144.922	-16.5157	-105.857	123.091	-39.7783	-103.594	111.378	-42.9643	-70.3739	155.544	-29.5663	-91.5347	128.339	-50.0695	-81.9785	125.758	-38.8589	-49.018	172.597	8.73826	-48.6156	175.249	6.80029	-15.4039	146.905	29.1158	-31.1633	
7	0.0583333	104.839	12.6673	-18.913	82.8663	-1.5913	-46.9999	73.0263	-16.1023	-79.2896	78.9642	-30.479	-104.967	117.921	30.298	-101.725	108.819	17.2479	-129.479	99.0654	4.3744	-152.952	133.188	8.43198	-110.205	109.782	-18.3641	-120.942	95.8866	-40.5319	-87.8486	141.14	-19.5959	-105.1	118.973	-42.1844	-101.712	105.38	-41.7016	-69.9889	153.352	-31.4386	-90.6961	125.081	-48.961	-84.4546	119.907	-42.2896	-49.5447	170.629	8.81554	-53.4242	176.138	6.24111	-14.5294	145.535	30.4817	-28.297	
8	0.0666667	107.589	14.5457	-23.5246	82.0044	1.61135	-45.4391	72.0499	-12.4487	-75.2808	73.0208	-27.8059	-100.742	117.987	28.0534	-102.533	106.109	19.4237	-127.735	97.1253	5.31494	-147.406	132.919	7.81812	-109.298	105.629	-19.8436	-119.085	91.0285	-36.2077	-92.7749	138.698	-16.026	-102.661	114.357	-38.0551	-102.47	101.405	-41.1918	-65.703	148.377	-35.204	-90.9163	118.286	-47.4536	-81.0452	115.923	-43.6044	-50.2187	173.23	3.39099	-52.9521	177.704	2.27417	-18.6038	148.993	27.2744	-28.7048	
9	0.075	107.857	22.4585	-19.3496	81.1479	7.96722	-44.7883	67.0479	-5.6481	-72.8507	67.7028	-22.9722	-98.6159	125.979	32.0792	-103.238	113.3	31.1121	-126.863	101.963	18.2747	-154.418	128.71	7.77512	-111.431	100.427	-17.6985	-117.574	82.4648	-31.1757	-90.1552	134.668	-19.3234	-101.406	106.67	-35.7895	-99.7695	92.9778	-35.9197	-65.2198	141.914	-40.1815	-88.6361	110.304	-46.9137	-78.0193	105.386	-35.3733	-48.3309	167.856	0.892501	-50.3191	176.553	-1.48474	-20.2303	154.935	26.8538	-29.9934	
10	0.0833333	112.386	26.8014	-23.3716	79.6084	16.5574	-45.6006	60.84	0.609939	-71.1175	62.073	-19.864	-93.331	131.579	35.9121	-99.6886	122.562	36.4724	-131.985	118.33	27.6858	-155.919	127.949	2.83444	-109.967	98.8514	-17.0848	-117.299	77.0354	-26.9119	-86.0346	126.197	-24.4414	-100.709	98.1613	-35.4697	-95.2839	85.148	-31.0197	-61.5071	133.015	-42.9974	-84.4995	101.591	-43.4657	-73.9917	98.6322	-28.7889	-42.1995	167.118	-3.23554	-49.1836	176.584	-2.83458	-16.7279	155.243	25.2816	-31.3289	
11	0.0916667	114.747	32.4459	-20.5782	85.6607	21.7447	-42.8518	61.5411	6.9878	-72.0388	57.1439	-13.7236	-91.9786	136.011	35.2242	-103.36	133.015	33.7658	-132.522	128.529	30.2472	-160.273	127.427	3.32258	-107.811	92.4182	-14.8431	-115.098	69.6022	-17.8978	-84.2161	121.231	-25.115	-98.7669	91.9004	-33.5181	-91.7189	79.3939	-22.7174	-57.4905	122.353	-39.6432	-83.9349	92.0655	-39.2809	-69.007	93.0418	-24.9406	-40.5141	165.629	-9.67934	-54.5569	174.241	-6.4014	-18.7758	156.098	27.0266	-37.3714	
12	0.1	120.386	38.2375	-24.9088	89.8944	29.4125	-45.4892	65.6457	18.1419	-68.1447	56.8809	-1.44806	-88.3937	143.439	31.6121	-108.424	140.041	27.8333	-134.707	136.198	27.4258	-158.652	124.311	-0.0834116	-112.436	88.7101	-14.092	-111.588	69.3361	-12.5832	-81.1524	116.413	-24.8199	-98.5158	85.3276	-29.9727	-88.091	75.4771	-13.9954	-58.1664	117.401	-42.5526	-82.4223	88.3748	-33.3072	-69.83	90.0237	-15.9146	-42.7118	166.516	-12.6298	-54.4831	173.418	-10.9226	-20.5153	164.054	24.0896	-37.065	
13	0.108333	129.974	37.1865	-30.0439	96.293	37.4781	-48.2637	73.175	27.5605	-71.7454	59.1729	10.8724	-88.0934	146.767	23.4399	-108.017	141.686	21.0336	-137.113	134.084	18.3273	-166.456	128.114	-5.80552	-109.533	90.2761	-9.75439	-113.443	68.0065	-4.22489	-77.8978	112.925	-26.8184	-97.9546	85.1208	-19.6792	-90.9846	74.927	-9.4375	-60.6207	115.264	-42.9496	-79.4348	84.3458	-28.1053	-66.9606	87.7913	-10.0335	-45.5774	165.449	-17.0561	-52.1666	174.103	-15.5389	-22.8033	169.312	20.6003	-39.7031	
14	0.116667	135.523	40.2683	-31.6308	102.068	46.4156	-48.6305	78.2892	36.3311	-73.2135	63.3764	17.1874	-93.6274	144.102	21.9851	-114.47	130.779	16.7806	-139.805	117.663	15.697	-162.009	124.818	-2.01794	-110.828	89.0071	-6.45172	-112.678	67.9201	4.02309	-78.4846	111.211	-26.0571	-96.6522	79.6887	-16.558	-87.7155	76.2121	0.21337	-56.4665	110.894	-39.2961	-78.4761	80.6252	-27.2496	-67.5512	87.7083	-4.50921	-40.8591	162.68	-23.877	-53.6809	174.5	-17.166	-22.1094	169.595	15.4324	-44.7085	
15	0.125	140.129	41.9801	-33.8995	108.11	47.0932	-50.538	81.8661	41.8028	-74.1642	65.9634	25.0634	-90.4709	136.03	19.7641	-114.486	115.586	17.6067	-136.429	97.5675	15.2724	-154.63	119.994	-4.3496	-111.707	83.2731	0.817262	-110.483	66.4096	10.1034	-79.6483	107.704	-21.2661	-98.0133	78.0908	-18.3628	-88.9083	75.1388	1.56577	-55.824	105.762	-38.9854	-78.2525	78.1207	-23.3092	-66.8302	86.3208	-2.74189	-41.6169	161.143	-27.9575	-53.4841	173.065	-24.5275	-25.1271	171.237	11.8547	-43.1193	
16	0.133333	142.065	37.4122	-33.4026	109.87	48.0669	-53.1583	84.3457	38.7013	-77.7227	65.9148	25.6996	-92.7604	129.457	17.0732	-114.509	108.261	17.7034	-131.958	84.8525	10.7932	-148.36	120.808	-5.27194	-110.64	83.1393	0.0419483	-111.332	65.1336	7.12108	-77.6961	108.717	-23.2934	-95.5212	75.6805	-13.2102	-87.0167	76.0447	5.52478	-55.5438	104.302	-40.4965	-76.643	76.5992	-18.8301	-65.663	87.2864	-1.20715	-40.9955	159.217	-28.408	-53.5353	172.556	-26.5084	-22.4253	170.859	7.95413	-43.3822	
17	0.141667	143.062	40.3411	-36.7385	110.794	45.0822	-55.5012	83.632	43.8046	-76.087	66.169	29.5891	-91.1303	130.455	13.0928	-115.265	110.351	12.7628	-133.897	89.5976	10.0681	-149.666	116.212	-8.44368	-111.127	79.1865	-1.04845	-109.694	62.5351	13.2853	-79.9657	104.465	-21.9523	-97.2041	73.151	-12.7687	-84.5571	75.3222	7.09934	-58.328	99.8559	-36.684	-78.3452	74.9158	-17.4309	-64.7469	82.7969	-1.90474	-39.1105	157.494	-30.4541	-53.7831	171.98	-26.4055	-20.97	171.331	9.87333	-45.0712	
